<svg xmlns="http://www.w3.org/2000/svg" viewBox="0 0 64 64"><path d="M44.76563,56H19.23438a4.967,4.967,0,0,1-4.96192-4.96143V17a.99974.99974,0,0,1,1-1H48.72754a.99974.99974,0,0,1,1,1V51.03857A4.967,4.967,0,0,1,44.76563,56ZM16.27246,18V51.03857A2.96535,2.96535,0,0,0,19.23438,54H44.76563a2.96535,2.96535,0,0,0,2.96191-2.96143V18Z"/><path d="M50.52441,18H13.47559a3.0001,3.0001,0,0,1,0-6H50.52441a3.0001,3.0001,0,0,1,0,6ZM13.47559,14a.97692.97692,0,0,0-.97559.97607A.98834.98834,0,0,0,13.47559,16H50.52441A.97692.97692,0,0,0,51.5,15.02393.98834.98834,0,0,0,50.52441,14Z"/><path d="M40.88672 14H23.11328a.99974.99974 0 0 1-1-1V11.04492A3.04839 3.04839 0 0 1 25.1582 8H38.8418a3.04839 3.04839 0 0 1 3.04492 3.04492V13A.99974.99974 0 0 1 40.88672 14zM24.11328 12H39.88672v-.95508A1.0461 1.0461 0 0 0 38.8418 10H25.1582a1.0461 1.0461 0 0 0-1.04492 1.04492zM23 44a.99974.99974 0 0 1-1-1V29a1 1 0 0 1 2 0V43A.99974.99974 0 0 1 23 44zM41 44a.99974.99974 0 0 1-1-1V29a1 1 0 0 1 2 0V43A.99974.99974 0 0 1 41 44zM32 33a.99974.99974 0 0 1-1-1V25a1 1 0 0 1 2 0v7A.99974.99974 0 0 1 32 33zM32 48a.99974.99974 0 0 1-1-1V40a1 1 0 0 1 2 0v7A.99974.99974 0 0 1 32 48zM32 37a1.39 1.39 0 0 1-.2002-.02.64867.64867 0 0 1-.17968-.06006.762.762 0 0 1-.18067-.09033C31.38965 36.79 31.33984 36.75 31.29 36.71a1.01394 1.01394 0 0 1 0-1.41992l.14941-.12012a.762.762 0 0 1 .18067-.09033A.63174.63174 0 0 1 31.7998 35.02a.89373.89373 0 0 1 .4004 0 .64181.64181 0 0 1 .17968.05957.75628.75628 0 0 1 .17969.09033c.04981.04.10059.08008.15039.12012.04.0498.08008.09961.12012.1499a.78226.78226 0 0 1 .08984.17969.61945.61945 0 0 1 .05957.18017.98495.98495 0 0 1 0 .39991.61936.61936 0 0 1-.05957.18017.77556.77556 0 0 1-.08984.18018c-.04.0498-.08008.09961-.12012.1499-.0498.04-.10058.08008-.15039.11963a.75628.75628 0 0 1-.17969.09033.65938.65938 0 0 1-.17968.06006A1.5583 1.5583 0 0 1 32 37z"/></svg>